<svg xmlns="http://www.w3.org/2000/svg" width="41.13" height="23.521" viewBox="0 0 41.13 23.521">
  <path id="Path_159" data-name="Path 159" d="M40.591,16.343l-3.36,12.5H29.192l3.19-12.037a7.754,7.754,0,0,0,.3-1.871,2.173,2.173,0,0,0-2.467-2.424c-2.169,0-3.489,1.531-4.211,4.168L22.726,28.848H14.645l3.233-12.037a7.754,7.754,0,0,0,.3-1.871,2.385,2.385,0,0,0-2.467-2.684c5.259,0-11.192.012-11.192.012L6.308,5.837H14.39l-.681,2.552a9,9,0,0,1,6.422-3.062,5.915,5.915,0,0,1,6,4,10.915,10.915,0,0,1,8.336-4c4.381,0,6.805,2.637,6.805,6.848A17.332,17.332,0,0,1,40.591,16.343ZM11.582,16.4c-.029.094-.058.187-.085.284L8.222,28.848H.141L3.478,16.4Z" transform="translate(-0.141 -5.327)" fill="#e66a16" fill-rule="evenodd"/>
</svg>
